<svg xmlns="http://www.w3.org/2000/svg" width="1000" height="670" viewBox="0 0 1000 670" role="group" aria-label="How topics become different kinds of posts. Use arrow keys to inspect marks, Enter to select and Escape to clear." data-figure-id="f13" font-family="Arial, sans-serif" tabindex="0"><title>How topics become different kinds of posts</title><desc>235 eligible original captions. Ribbon width is caption count. Every caption has one primary topic and one dominant approach. These are editorial flows, not audience journeys.</desc><rect width="1000" height="670" fill="#FFFFFF"></rect><text x="30" y="33" font-size="14" fill="#00689D" font-weight="600" text-anchor="start">13  /  TOPICS AND APPROACHES</text><text x="30" y="72" font-size="29" fill="#10253F" font-weight="600" text-anchor="start">How topics become different kinds of posts</text><text x="30" y="100" font-size="17" fill="#485B70" font-weight="400" text-anchor="start">235 eligible original captions</text><line x1="30" y1="638" x2="970" y2="638" stroke="#D9E2EB" stroke-width="1"></line><text x="30" y="658" font-size="12" fill="#485B70" font-weight="400" text-anchor="start">RIAD MEDDEB  ·  LINKEDIN VISUAL ANALYSIS  ·  02 OCT 2026</text><text x="970" y="658" font-size="12" fill="#485B70" font-weight="400" text-anchor="end">D3 / F13</text><path d="M250,153C500,153 500,153 750,153L750,194.22553191489362C500,194.22553191489362 500,194.22553191489362 250,194.22553191489362Z" fill="#26BDE2" opacity="0.78" data-detail="AI and digital → Insight or argument: 28 captions" tabindex="-1" role="button" data-focus="AI and digital" data-mark-index="0" aria-label="AI and digital → Insight or argument: 28 captions" class="explorable" style="pointer-events: all;"></path><path d="M250,194.22553191489362C500,194.22553191489362 500,307.8170212765957 750,307.8170212765957L750,332.84680851063825C500,332.84680851063825 500,219.25531914893617 250,219.25531914893617Z" fill="#26BDE2" opacity="0.78" data-detail="AI and digital → Event reporting: 17 captions" tabindex="-1" role="button" data-focus="AI and digital" data-mark-index="1" aria-label="AI and digital → Event reporting: 17 captions" class="explorable" style="pointer-events: all;"></path><path d="M250,219.25531914893617C500,219.25531914893617 500,436.13191489361697 750,436.13191489361697L750,442.0212765957446C500,442.0212765957446 500,225.14468085106384 250,225.14468085106384Z" fill="#26BDE2" opacity="0.78" data-detail="AI and digital → Event invitation: 4 captions" tabindex="-1" role="button" data-focus="AI and digital" data-mark-index="2" aria-label="AI and digital → Event invitation: 4 captions" class="explorable" style="pointer-events: all;"></path><path d="M250,225.14468085106384C500,225.14468085106384 500,474.6340425531914 750,474.6340425531914L750,479.05106382978715C500,479.05106382978715 500,229.56170212765957 250,229.56170212765957Z" fill="#26BDE2" opacity="0.78" data-detail="AI and digital → Resource sharing: 3 captions" tabindex="-1" role="button" data-focus="AI and digital" data-mark-index="3" aria-label="AI and digital → Resource sharing: 3 captions" class="explorable" style="pointer-events: all;"></path><path d="M250,229.56170212765957C500,229.56170212765957 500,553.1106382978722 750,553.1106382978722L750,554.5829787234042C500,554.5829787234042 500,231.03404255319148 250,231.03404255319148Z" fill="#26BDE2" opacity="0.78" data-detail="AI and digital → Personal voice: 1 captions" tabindex="-1" role="button" data-focus="AI and digital" data-mark-index="4" aria-label="AI and digital → Personal voice: 1 captions" class="explorable" style="pointer-events: all;"></path><path d="M250,243.03404255319148C500,243.03404255319148 500,194.22553191489362 750,194.22553191489362L750,204.53191489361703C500,204.53191489361703 500,253.3404255319149 250,253.3404255319149Z" fill="#E5243B" opacity="0.78" data-detail="Finance → Insight or argument: 7 captions" tabindex="-1" role="button" data-focus="Finance" data-mark-index="5" aria-label="Finance → Insight or argument: 7 captions" class="explorable" style="pointer-events: all;"></path><path d="M250,253.3404255319149C500,253.3404255319149 500,332.84680851063825 750,332.84680851063825L750,363.76595744680844C500,363.76595744680844 500,284.2595744680851 250,284.2595744680851Z" fill="#E5243B" opacity="0.78" data-detail="Finance → Event reporting: 21 captions" tabindex="-1" role="button" data-focus="Finance" data-mark-index="6" aria-label="Finance → Event reporting: 21 captions" class="explorable" style="pointer-events: all;"></path><path d="M250,284.2595744680851C500,284.2595744680851 500,442.0212765957446 750,442.0212765957446L750,446.43829787234034C500,446.43829787234034 500,288.6765957446808 250,288.6765957446808Z" fill="#E5243B" opacity="0.78" data-detail="Finance → Event invitation: 3 captions" tabindex="-1" role="button" data-focus="Finance" data-mark-index="7" aria-label="Finance → Event invitation: 3 captions" class="explorable" style="pointer-events: all;"></path><path d="M250,288.6765957446808C500,288.6765957446808 500,479.05106382978715 750,479.05106382978715L750,484.9404255319148C500,484.9404255319148 500,294.56595744680845 250,294.56595744680845Z" fill="#E5243B" opacity="0.78" data-detail="Finance → Resource sharing: 4 captions" tabindex="-1" role="button" data-focus="Finance" data-mark-index="8" aria-label="Finance → Resource sharing: 4 captions" class="explorable" style="pointer-events: all;"></path><path d="M250,306.5659574468085C500,306.5659574468085 500,204.53191489361703 750,204.53191489361703L750,228.08936170212766C500,228.08936170212766 500,330.12340425531914 250,330.12340425531914Z" fill="#FCC30B" opacity="0.78" data-detail="Energy access → Insight or argument: 16 captions" tabindex="-1" role="button" data-focus="Energy access" data-mark-index="9" aria-label="Energy access → Insight or argument: 16 captions" class="explorable" style="pointer-events: all;"></path><path d="M250,330.12340425531914C500,330.12340425531914 500,363.76595744680844 750,363.76595744680844L750,378.4893617021276C500,378.4893617021276 500,344.8468085106383 250,344.8468085106383Z" fill="#FCC30B" opacity="0.78" data-detail="Energy access → Event reporting: 10 captions" tabindex="-1" role="button" data-focus="Energy access" data-mark-index="10" aria-label="Energy access → Event reporting: 10 captions" class="explorable" style="pointer-events: all;"></path><path d="M250,344.8468085106383C500,344.8468085106383 500,446.43829787234034 750,446.43829787234034L750,447.91063829787225C500,447.91063829787225 500,346.3191489361702 250,346.3191489361702Z" fill="#FCC30B" opacity="0.78" data-detail="Energy access → Event invitation: 1 captions" tabindex="-1" role="button" data-focus="Energy access" data-mark-index="11" aria-label="Energy access → Event invitation: 1 captions" class="explorable" style="pointer-events: all;"></path><path d="M250,346.3191489361702C500,346.3191489361702 500,484.9404255319148 750,484.9404255319148L750,492.30212765957435C500,492.30212765957435 500,353.6808510638298 250,353.6808510638298Z" fill="#FCC30B" opacity="0.78" data-detail="Energy access → Resource sharing: 5 captions" tabindex="-1" role="button" data-focus="Energy access" data-mark-index="12" aria-label="Energy access → Resource sharing: 5 captions" class="explorable" style="pointer-events: all;"></path><path d="M250,365.6808510638298C500,365.6808510638298 500,228.08936170212766 750,228.08936170212766L750,251.6468085106383C500,251.6468085106383 500,389.2382978723404 250,389.2382978723404Z" fill="#FD6925" opacity="0.78" data-detail="Technology and grids → Insight or argument: 16 captions" tabindex="-1" role="button" data-focus="Technology and grids" data-mark-index="13" aria-label="Technology and grids → Insight or argument: 16 captions" class="explorable" style="pointer-events: all;"></path><path d="M250,389.2382978723404C500,389.2382978723404 500,378.4893617021276 750,378.4893617021276L750,390.26808510638296C500,390.26808510638296 500,401.01702127659576 250,401.01702127659576Z" fill="#FD6925" opacity="0.78" data-detail="Technology and grids → Event reporting: 8 captions" tabindex="-1" role="button" data-focus="Technology and grids" data-mark-index="14" aria-label="Technology and grids → Event reporting: 8 captions" class="explorable" style="pointer-events: all;"></path><path d="M250,401.01702127659576C500,401.01702127659576 500,447.91063829787225 750,447.91063829787225L750,450.8553191489361C500,450.8553191489361 500,403.9617021276596 250,403.9617021276596Z" fill="#FD6925" opacity="0.78" data-detail="Technology and grids → Event invitation: 2 captions" tabindex="-1" role="button" data-focus="Technology and grids" data-mark-index="15" aria-label="Technology and grids → Event invitation: 2 captions" class="explorable" style="pointer-events: all;"></path><path d="M250,403.9617021276596C500,403.9617021276596 500,492.30212765957435 750,492.30212765957435L750,493.77446808510626C500,493.77446808510626 500,405.4340425531915 250,405.4340425531915Z" fill="#FD6925" opacity="0.78" data-detail="Technology and grids → Resource sharing: 1 captions" tabindex="-1" role="button" data-focus="Technology and grids" data-mark-index="16" aria-label="Technology and grids → Resource sharing: 1 captions" class="explorable" style="pointer-events: all;"></path><path d="M250,417.4340425531915C500,417.4340425531915 500,251.6468085106383 750,251.6468085106383L750,270.78723404255317C500,270.78723404255317 500,436.5744680851064 250,436.5744680851064Z" fill="#0A97D9" opacity="0.78" data-detail="Islands → Insight or argument: 13 captions" tabindex="-1" role="button" data-focus="Islands" data-mark-index="17" aria-label="Islands → Insight or argument: 13 captions" class="explorable" style="pointer-events: all;"></path><path d="M250,436.5744680851064C500,436.5744680851064 500,390.26808510638296 750,390.26808510638296L750,402.0468085106383C500,402.0468085106383 500,448.35319148936173 250,448.35319148936173Z" fill="#0A97D9" opacity="0.78" data-detail="Islands → Event reporting: 8 captions" tabindex="-1" role="button" data-focus="Islands" data-mark-index="18" aria-label="Islands → Event reporting: 8 captions" class="explorable" style="pointer-events: all;"></path><path d="M250,448.35319148936173C500,448.35319148936173 500,493.77446808510626 750,493.77446808510626L750,501.1361702127658C500,501.1361702127658 500,455.7148936170213 250,455.7148936170213Z" fill="#0A97D9" opacity="0.78" data-detail="Islands → Resource sharing: 5 captions" tabindex="-1" role="button" data-focus="Islands" data-mark-index="19" aria-label="Islands → Resource sharing: 5 captions" class="explorable" style="pointer-events: all;"></path><path d="M250,467.7148936170213C500,467.7148936170213 500,270.78723404255317 750,270.78723404255317L750,279.62127659574463C500,279.62127659574463 500,476.54893617021276 250,476.54893617021276Z" fill="#DD1367" opacity="0.78" data-detail="People and opportunity → Insight or argument: 6 captions" tabindex="-1" role="button" data-focus="People and opportunity" data-mark-index="20" aria-label="People and opportunity → Insight or argument: 6 captions" class="explorable" style="pointer-events: all;"></path><path d="M250,476.54893617021276C500,476.54893617021276 500,402.0468085106383 750,402.0468085106383L750,410.88085106382977C500,410.88085106382977 500,485.3829787234042 250,485.3829787234042Z" fill="#DD1367" opacity="0.78" data-detail="People and opportunity → Event reporting: 6 captions" tabindex="-1" role="button" data-focus="People and opportunity" data-mark-index="21" aria-label="People and opportunity → Event reporting: 6 captions" class="explorable" style="pointer-events: all;"></path><path d="M250,485.3829787234042C500,485.3829787234042 500,450.8553191489361 750,450.8553191489361L750,455.2723404255318C500,455.2723404255318 500,489.79999999999995 250,489.79999999999995Z" fill="#DD1367" opacity="0.78" data-detail="People and opportunity → Event invitation: 3 captions" tabindex="-1" role="button" data-focus="People and opportunity" data-mark-index="22" aria-label="People and opportunity → Event invitation: 3 captions" class="explorable" style="pointer-events: all;"></path><path d="M250,489.79999999999995C500,489.79999999999995 500,501.1361702127658 750,501.1361702127658L750,507.02553191489346C500,507.02553191489346 500,495.6893617021276 250,495.6893617021276Z" fill="#DD1367" opacity="0.78" data-detail="People and opportunity → Resource sharing: 4 captions" tabindex="-1" role="button" data-focus="People and opportunity" data-mark-index="23" aria-label="People and opportunity → Resource sharing: 4 captions" class="explorable" style="pointer-events: all;"></path><path d="M250,495.6893617021276C500,495.6893617021276 500,521.9702127659574 750,521.9702127659574L750,541.1106382978722C500,541.1106382978722 500,514.8297872340424 250,514.8297872340424Z" fill="#DD1367" opacity="0.78" data-detail="People and opportunity → Opportunity: 13 captions" tabindex="-1" role="button" data-focus="People and opportunity" data-mark-index="24" aria-label="People and opportunity → Opportunity: 13 captions" class="explorable" style="pointer-events: all;"></path><path d="M250,514.8297872340424C500,514.8297872340424 500,554.5829787234042 750,554.5829787234042L750,556.0553191489361C500,556.0553191489361 500,516.3021276595744 250,516.3021276595744Z" fill="#DD1367" opacity="0.78" data-detail="People and opportunity → Personal voice: 1 captions" tabindex="-1" role="button" data-focus="People and opportunity" data-mark-index="25" aria-label="People and opportunity → Personal voice: 1 captions" class="explorable" style="pointer-events: all;"></path><path d="M250,528.3021276595745C500,528.3021276595745 500,279.62127659574463 750,279.62127659574463L750,295.8170212765957C500,295.8170212765957 500,544.4978723404255 250,544.4978723404255Z" fill="#3F7E44" opacity="0.78" data-detail="Transition policy → Insight or argument: 11 captions" tabindex="-1" role="button" data-focus="Transition policy" data-mark-index="26" aria-label="Transition policy → Insight or argument: 11 captions" class="explorable" style="pointer-events: all;"></path><path d="M250,544.4978723404255C500,544.4978723404255 500,410.88085106382977 750,410.88085106382977L750,424.131914893617C500,424.131914893617 500,557.7489361702127 250,557.7489361702127Z" fill="#3F7E44" opacity="0.78" data-detail="Transition policy → Event reporting: 9 captions" tabindex="-1" role="button" data-focus="Transition policy" data-mark-index="27" aria-label="Transition policy → Event reporting: 9 captions" class="explorable" style="pointer-events: all;"></path><path d="M250,557.7489361702127C500,557.7489361702127 500,455.2723404255318 750,455.2723404255318L750,462.63404255319136C500,462.63404255319136 500,565.1106382978722 250,565.1106382978722Z" fill="#3F7E44" opacity="0.78" data-detail="Transition policy → Event invitation: 5 captions" tabindex="-1" role="button" data-focus="Transition policy" data-mark-index="28" aria-label="Transition policy → Event invitation: 5 captions" class="explorable" style="pointer-events: all;"></path><path d="M250,565.1106382978722C500,565.1106382978722 500,507.02553191489346 750,507.02553191489346L750,509.9702127659573C500,509.9702127659573 500,568.0553191489361 250,568.0553191489361Z" fill="#3F7E44" opacity="0.78" data-detail="Transition policy → Resource sharing: 2 captions" tabindex="-1" role="button" data-focus="Transition policy" data-mark-index="29" aria-label="Transition policy → Resource sharing: 2 captions" class="explorable" style="pointer-events: all;"></path><path d="M250,580.0553191489362C500,580.0553191489362 500,556.0553191489361 750,556.0553191489361L750,558.9999999999999C500,558.9999999999999 500,583 250,583Z" fill="#19486A" opacity="0.78" data-detail="Other → Personal voice: 2 captions" tabindex="-1" role="button" data-focus="Other" data-mark-index="30" aria-label="Other → Personal voice: 2 captions" class="explorable" style="pointer-events: all;"></path><rect x="240" y="153" width="10" height="78.03404255319148" fill="#26BDE2"></rect><text x="230" y="197.01702127659576" font-size="16" fill="#10253F" font-weight="500" text-anchor="end">AI and digital  53</text><rect x="240" y="243.03404255319148" width="10" height="51.53191489361702" fill="#E5243B"></rect><text x="230" y="273.8" font-size="16" fill="#10253F" font-weight="500" text-anchor="end">Finance  35</text><rect x="240" y="306.5659574468085" width="10" height="47.11489361702127" fill="#FCC30B"></rect><text x="230" y="335.12340425531914" font-size="16" fill="#10253F" font-weight="500" text-anchor="end">Energy access  32</text><rect x="240" y="365.6808510638298" width="10" height="39.7531914893617" fill="#FD6925"></rect><text x="230" y="390.55744680851063" font-size="16" fill="#10253F" font-weight="500" text-anchor="end">Technology and grids  27</text><rect x="240" y="417.4340425531915" width="10" height="38.280851063829786" fill="#0A97D9"></rect><text x="230" y="441.5744680851064" font-size="16" fill="#10253F" font-weight="500" text-anchor="end">Islands  26</text><rect x="240" y="467.7148936170213" width="10" height="48.58723404255319" fill="#DD1367"></rect><text x="230" y="497.0085106382979" font-size="16" fill="#10253F" font-weight="500" text-anchor="end">People and opportunity  33</text><rect x="240" y="528.3021276595745" width="10" height="39.7531914893617" fill="#3F7E44"></rect><text x="230" y="553.1787234042553" font-size="16" fill="#10253F" font-weight="500" text-anchor="end">Transition policy  27</text><rect x="240" y="580.0553191489362" width="10" height="2.9446808510638296" fill="#19486A"></rect><text x="230" y="586.5276595744681" font-size="16" fill="#10253F" font-weight="500" text-anchor="end">Other  2</text><rect x="750" y="153" width="10" height="142.81702127659574" fill="#00689D"></rect><text x="770" y="229.40851063829786" font-size="16" fill="#10253F" font-weight="500" text-anchor="start"><tspan x="770" dy="0">Insight or argument 97</tspan></text><rect x="750" y="307.8170212765957" width="10" height="116.31489361702127" fill="#4C9F38"></rect><text x="770" y="370.97446808510637" font-size="16" fill="#10253F" font-weight="500" text-anchor="start"><tspan x="770" dy="0">Event reporting 79</tspan></text><rect x="750" y="436.13191489361697" width="10" height="26.502127659574466" fill="#E5243B"></rect><text x="770" y="454.3829787234042" font-size="16" fill="#10253F" font-weight="500" text-anchor="start"><tspan x="770" dy="0">Event invitation 18</tspan></text><rect x="750" y="474.6340425531914" width="10" height="35.33617021276596" fill="#FCC30B"></rect><text x="770" y="497.3021276595744" font-size="16" fill="#10253F" font-weight="500" text-anchor="start"><tspan x="770" dy="0">Resource sharing 24</tspan></text><rect x="750" y="521.9702127659574" width="10" height="19.140425531914893" fill="#DD1367"></rect><text x="770" y="536.5404255319148" font-size="16" fill="#10253F" font-weight="500" text-anchor="start"><tspan x="770" dy="0">Opportunity 13</tspan></text><rect x="750" y="553.1106382978722" width="10" height="5.889361702127659" fill="#FD6925"></rect><text x="770" y="561.0553191489361" font-size="16" fill="#10253F" font-weight="500" text-anchor="start"><tspan x="770" dy="0">Personal voice 4</tspan></text></svg>